<mxfile host="app.diagrams.net" modified="2024-01-25T08:16:10.689Z" agent="Mozilla/5.0 (Macintosh; Intel Mac OS X 10_15_7) AppleWebKit/605.1.15 (KHTML, like Gecko) Version/17.3 Safari/605.1.15" etag="Xx8S1DROGrs-q5xylU7G" version="22.1.21" type="github">
  <diagram name="Page-1" id="x2tcOFAaIOZVJoetj7t5">
    <mxGraphModel dx="1474" dy="1191" grid="1" gridSize="10" guides="1" tooltips="1" connect="1" arrows="1" fold="1" page="1" pageScale="1" pageWidth="3300" pageHeight="2339" math="0" shadow="0">
      <root>
        <mxCell id="0" />
        <mxCell id="1" parent="0" />
        <mxCell id="tN2QRdZRQ0KlY6AHjV4z-1" value="main.dart" style="rounded=0;whiteSpace=wrap;html=1;" vertex="1" parent="1">
          <mxGeometry x="120" y="80" width="120" height="60" as="geometry" />
        </mxCell>
        <mxCell id="tN2QRdZRQ0KlY6AHjV4z-16" style="edgeStyle=orthogonalEdgeStyle;rounded=0;orthogonalLoop=1;jettySize=auto;html=1;entryX=0;entryY=0.5;entryDx=0;entryDy=0;" edge="1" parent="1" source="tN2QRdZRQ0KlY6AHjV4z-2" target="tN2QRdZRQ0KlY6AHjV4z-6">
          <mxGeometry relative="1" as="geometry" />
        </mxCell>
        <mxCell id="tN2QRdZRQ0KlY6AHjV4z-2" value="Scaffold" style="rounded=0;whiteSpace=wrap;html=1;align=left;" vertex="1" parent="1">
          <mxGeometry x="200" y="280" width="120" height="40" as="geometry" />
        </mxCell>
        <mxCell id="tN2QRdZRQ0KlY6AHjV4z-15" style="edgeStyle=orthogonalEdgeStyle;rounded=0;orthogonalLoop=1;jettySize=auto;html=1;entryX=0;entryY=0.5;entryDx=0;entryDy=0;" edge="1" parent="1" source="tN2QRdZRQ0KlY6AHjV4z-3" target="tN2QRdZRQ0KlY6AHjV4z-2">
          <mxGeometry relative="1" as="geometry" />
        </mxCell>
        <mxCell id="tN2QRdZRQ0KlY6AHjV4z-3" value="home_page.dart" style="rounded=0;whiteSpace=wrap;html=1;" vertex="1" parent="1">
          <mxGeometry x="120" y="200" width="120" height="60" as="geometry" />
        </mxCell>
        <mxCell id="tN2QRdZRQ0KlY6AHjV4z-4" value="AppBar" style="rounded=0;whiteSpace=wrap;html=1;align=left;" vertex="1" parent="1">
          <mxGeometry x="280" y="280" width="120" height="40" as="geometry" />
        </mxCell>
        <mxCell id="tN2QRdZRQ0KlY6AHjV4z-5" value="Text" style="rounded=0;whiteSpace=wrap;html=1;align=left;" vertex="1" parent="1">
          <mxGeometry x="350" y="280" width="120" height="40" as="geometry" />
        </mxCell>
        <mxCell id="tN2QRdZRQ0KlY6AHjV4z-18" style="edgeStyle=orthogonalEdgeStyle;rounded=0;orthogonalLoop=1;jettySize=auto;html=1;entryX=0;entryY=0.5;entryDx=0;entryDy=0;exitX=1;exitY=1;exitDx=0;exitDy=0;" edge="1" parent="1" source="tN2QRdZRQ0KlY6AHjV4z-6" target="tN2QRdZRQ0KlY6AHjV4z-10">
          <mxGeometry relative="1" as="geometry" />
        </mxCell>
        <mxCell id="tN2QRdZRQ0KlY6AHjV4z-6" value="SafeArea" style="rounded=0;whiteSpace=wrap;html=1;align=left;" vertex="1" parent="1">
          <mxGeometry x="280" y="360" width="120" height="40" as="geometry" />
        </mxCell>
        <mxCell id="tN2QRdZRQ0KlY6AHjV4z-7" value="Column" style="rounded=0;whiteSpace=wrap;html=1;align=left;" vertex="1" parent="1">
          <mxGeometry x="350" y="360" width="120" height="40" as="geometry" />
        </mxCell>
        <mxCell id="tN2QRdZRQ0KlY6AHjV4z-8" value="Center" style="rounded=0;whiteSpace=wrap;html=1;align=left;" vertex="1" parent="1">
          <mxGeometry x="420" y="360" width="120" height="40" as="geometry" />
        </mxCell>
        <mxCell id="tN2QRdZRQ0KlY6AHjV4z-9" value="Text" style="rounded=0;whiteSpace=wrap;html=1;align=left;" vertex="1" parent="1">
          <mxGeometry x="490" y="360" width="120" height="40" as="geometry" />
        </mxCell>
        <mxCell id="tN2QRdZRQ0KlY6AHjV4z-19" style="edgeStyle=orthogonalEdgeStyle;rounded=0;orthogonalLoop=1;jettySize=auto;html=1;entryX=0;entryY=0.5;entryDx=0;entryDy=0;exitX=0.5;exitY=1;exitDx=0;exitDy=0;" edge="1" parent="1" source="tN2QRdZRQ0KlY6AHjV4z-12" target="tN2QRdZRQ0KlY6AHjV4z-13">
          <mxGeometry relative="1" as="geometry" />
        </mxCell>
        <mxCell id="tN2QRdZRQ0KlY6AHjV4z-10" value="Expanded" style="rounded=0;whiteSpace=wrap;html=1;align=left;" vertex="1" parent="1">
          <mxGeometry x="420" y="440" width="120" height="40" as="geometry" />
        </mxCell>
        <mxCell id="tN2QRdZRQ0KlY6AHjV4z-11" value="Padding" style="rounded=0;whiteSpace=wrap;html=1;align=left;" vertex="1" parent="1">
          <mxGeometry x="490" y="440" width="120" height="40" as="geometry" />
        </mxCell>
        <mxCell id="tN2QRdZRQ0KlY6AHjV4z-12" value="ListView.builder" style="rounded=0;whiteSpace=wrap;html=1;align=left;" vertex="1" parent="1">
          <mxGeometry x="560" y="440" width="120" height="40" as="geometry" />
        </mxCell>
        <mxCell id="tN2QRdZRQ0KlY6AHjV4z-20" style="edgeStyle=orthogonalEdgeStyle;rounded=0;orthogonalLoop=1;jettySize=auto;html=1;entryX=0;entryY=0.5;entryDx=0;entryDy=0;" edge="1" parent="1" source="tN2QRdZRQ0KlY6AHjV4z-13" target="tN2QRdZRQ0KlY6AHjV4z-14">
          <mxGeometry relative="1" as="geometry" />
        </mxCell>
        <mxCell id="tN2QRdZRQ0KlY6AHjV4z-13" value="BoxTileCard" style="rounded=0;whiteSpace=wrap;html=1;align=left;" vertex="1" parent="1">
          <mxGeometry x="640" y="520" width="120" height="40" as="geometry" />
        </mxCell>
        <mxCell id="tN2QRdZRQ0KlY6AHjV4z-14" value="BoxTile" style="rounded=0;whiteSpace=wrap;html=1;align=left;" vertex="1" parent="1">
          <mxGeometry x="720" y="600" width="120" height="40" as="geometry" />
        </mxCell>
      </root>
    </mxGraphModel>
  </diagram>
</mxfile>
